<?xml version="1.0" standalone="no"?>
<!DOCTYPE svg PUBLIC "-//W3C//DTD SVG 20010904//EN"
 "http://www.w3.org/TR/2001/REC-SVG-20010904/DTD/svg10.dtd">
<svg version="1.0" xmlns="http://www.w3.org/2000/svg"
 width="993.000000pt" height="993.000000pt" viewBox="0 0 993.000000 993.000000"
 preserveAspectRatio="xMidYMid meet">
<metadata>
Created by potrace 1.14, written by Peter Selinger 2001-2017
</metadata>
<g transform="translate(0.000000,993.000000) scale(0.100000,-0.100000)"
fill="#000000" stroke="none">
<path d="M4709 9926 c-2 -2 -49 -6 -104 -10 -55 -3 -113 -8 -130 -10 -16 -2
-57 -7 -90 -11 -83 -9 -117 -14 -215 -30 -47 -8 -103 -17 -125 -21 -22 -3 -69
-13 -105 -21 -36 -8 -72 -16 -80 -18 -421 -91 -903 -276 -1306 -501 -76 -42
-161 -91 -189 -109 -97 -62 -230 -149 -240 -157 -5 -4 -68 -51 -140 -104 -71
-54 -132 -100 -135 -103 -3 -3 -21 -18 -40 -33 -35 -27 -43 -33 -159 -136
-130 -114 -374 -367 -477 -492 -16 -19 -37 -44 -47 -55 -96 -104 -427 -582
-427 -616 0 -5 -4 -9 -10 -9 -5 0 -10 -4 -10 -8 0 -5 -26 -55 -58 -113 -107
-192 -205 -401 -276 -589 -26 -69 -51 -132 -55 -140 -12 -23 -96 -292 -126
-405 -28 -102 -31 -118 -40 -170 -3 -16 -8 -38 -11 -47 -8 -27 -37 -175 -48
-248 -3 -19 -8 -46 -10 -60 -3 -14 -8 -47 -11 -75 -5 -49 -12 -110 -20 -170
-26 -201 -26 -836 0 -996 2 -13 6 -53 10 -89 3 -36 8 -74 10 -85 2 -11 7 -38
9 -60 3 -22 8 -51 10 -65 3 -14 7 -41 10 -60 3 -19 8 -46 11 -60 2 -14 10 -50
16 -80 6 -30 19 -89 29 -130 11 -41 21 -86 24 -100 17 -89 143 -484 172 -542
8 -15 14 -30 14 -33 -1 -3 8 -26 20 -51 11 -26 20 -49 20 -52 0 -19 180 -392
247 -512 136 -245 349 -555 514 -751 160 -191 369 -408 513 -534 38 -33 74
-65 80 -70 6 -6 34 -28 61 -50 28 -22 55 -45 60 -51 39 -41 393 -290 515 -362
30 -18 62 -37 70 -42 199 -126 616 -319 895 -415 262 -90 608 -177 830 -209
23 -4 50 -8 61 -10 12 -2 45 -7 75 -11 30 -3 65 -8 79 -10 145 -22 303 -29
585 -29 244 0 419 6 505 19 14 2 50 6 80 10 30 4 66 8 80 10 14 2 45 7 70 10
150 20 574 113 660 145 14 5 72 23 130 41 58 17 110 34 115 38 6 3 15 6 20 7
17 3 196 73 310 122 101 43 355 168 450 222 143 81 155 88 330 203 84 55 223
154 260 184 6 5 28 22 50 38 34 26 150 120 165 135 3 3 43 39 90 80 101 89
326 314 390 390 25 29 51 59 58 66 30 31 157 190 229 288 29 39 56 76 61 81 4
6 47 69 94 140 111 170 219 358 306 536 75 153 176 386 172 397 0 1 6 15 13
30 43 83 179 538 213 706 21 105 54 290 59 326 3 25 8 56 10 70 4 23 13 99 21
175 27 269 26 744 -1 995 -3 19 -7 58 -10 85 -17 160 -57 373 -111 605 -49
205 -165 555 -239 725 -95 214 -185 397 -250 507 -14 24 -32 57 -41 73 -8 17
-22 42 -32 57 -9 15 -35 55 -56 90 -72 116 -284 413 -328 459 -7 8 -31 37 -53
64 -152 190 -451 490 -653 653 -38 31 -72 59 -98 80 -124 104 -437 313 -639
427 -168 95 -522 260 -675 315 -19 6 -44 16 -55 20 -26 11 -215 73 -285 93
-249 73 -512 130 -716 157 -44 6 -90 12 -101 14 -11 2 -57 7 -104 12 -46 4
-97 9 -114 11 -38 5 -632 13 -636 9z"/>
</g>
</svg>
